<svg xmlns="http://www.w3.org/2000/svg" viewBox="0 0 1200 120" width="1200" height="120" role="img" aria-label="">
  <defs>
    <linearGradient id="fbg" x1="0" y1="0" x2="0" y2="1">
      <stop offset="0" stop-color="#2D6A4F"></stop>
      <stop offset="0.55" stop-color="#1B4332"></stop>
      <stop offset="1" stop-color="#0A1410"></stop>
    </linearGradient>
  </defs>
  <path d="M0,44 C200,12 400,74 600,44 C800,14 1000,74 1200,44 L1200,120 L0,120 Z" fill="url(#fbg)"></path>
  <path d="M0,60 C220,30 420,86 640,54 C860,26 1020,80 1200,52 L1200,120 L0,120 Z" fill="#40916C" opacity="0.14"></path>
  <path d="M0,74 C240,48 440,96 660,68 C880,44 1040,88 1200,66 L1200,120 L0,120 Z" fill="#52B788" opacity="0.08"></path>
</svg>